<?xml version="1.0" encoding="utf-8"?>
<!-- Generator: Adobe Illustrator 26.5.1, SVG Export Plug-In . SVG Version: 6.00 Build 0)  -->
<svg version="1.1" id="Layer_1" xmlns="http://www.w3.org/2000/svg" xmlns:xlink="http://www.w3.org/1999/xlink" x="0px" y="0px"
	 viewBox="0 0 720 720" style="enable-background:new 0 0 720 720;" xml:space="preserve">
<style type="text/css">
	.st0{fill:#FFFF00;stroke:#000000;stroke-width:5;stroke-miterlimit:10;}
	.st1{fill:#F4F78F;stroke:#F4F78F;stroke-width:5;stroke-miterlimit:10;}
	.st2{fill:none;stroke:#999999;stroke-width:2;stroke-miterlimit:10;}
	.st3{fill:#FFC9E3;stroke:#FFC9E3;stroke-width:3.0001;stroke-miterlimit:10.0003;}
</style>
<path class="st0" d="M360.5,357.5"/>
<path class="st1" d="M306.38,469.81c-11.57-4.8-30.44-14.5-47.75-33.25c-5.62-6.09-27.22-30.63-34.25-69.97
	c-2.43-13.64-6.14-45.97,9.54-81.48c5.33-12.08,17.89-39.51,47.38-57.27c35.2-21.19,82.3-21.25,87.61-8.47
	c3.62,8.71-15.25,16-30.51,45.41c-5.21,10.04-22.88,44.07-11.47,80.94c11.56,37.32,45.78,54.45,51.38,57.15
	c44.69,21.49,84.55-1.79,89.72,9.79c6.21,13.92-44.12,63.76-103.26,67.44C337.9,481.77,315.31,473.52,306.38,469.81z"/>
<polygon class="st1" points="468.3,313.48 448.88,312.93 437.42,328.63 431.93,309.99 413.47,303.94 429.5,292.96 429.55,273.53 
	444.94,285.38 463.44,279.42 456.92,297.73 "/>
<polygon class="st1" points="409.42,353.44 403.41,350.77 397.8,354.22 398.48,347.67 393.47,343.4 399.9,342.03 402.41,335.94 
	405.71,341.64 412.27,342.15 407.88,347.04 "/>
<polygon class="st1" points="390.81,293.96 381.97,290.76 374.31,296.24 374.62,286.83 367.05,281.25 376.09,278.64 379.07,269.71 
	384.34,277.5 393.75,277.57 387.97,285 "/>
<g>
	<path class="st2" d="M277.4,332.34c2.12,4.13,0.66,9.17-2.95,11.37c-3.96,2.41-9.54,0.81-11.72-3.82"/>
	<path class="st2" d="M306.48,317.21c2.12,4.13,0.66,9.17-2.95,11.37c-3.96,2.41-9.54,0.81-11.72-3.82"/>
	<path class="st2" d="M308.55,343.74c3.46,6.73,1.08,14.97-4.81,18.56c-6.46,3.94-15.57,1.32-19.13-6.24"/>
	<ellipse transform="matrix(0.895 -0.446 0.446 0.895 -128.5118 157.6712)" class="st3" cx="270.71" cy="351.86" rx="4" ry="2"/>
	<ellipse transform="matrix(0.895 -0.446 0.446 0.895 -115.5514 173.8256)" class="st3" cx="311.51" cy="332.4" rx="4" ry="2"/>
</g>
</svg>
