<?xml version="1.0" encoding="utf-8"?>
<!-- Generator: Adobe Illustrator 26.5.1, SVG Export Plug-In . SVG Version: 6.00 Build 0)  -->
<svg version="1.1" id="Layer_1" xmlns="http://www.w3.org/2000/svg" xmlns:xlink="http://www.w3.org/1999/xlink" x="0px" y="0px"
	 viewBox="0 0 720 720" style="enable-background:new 0 0 720 720;" xml:space="preserve">
<style type="text/css">
	.st0{fill:#FFFF00;stroke:#000000;stroke-width:5;stroke-miterlimit:10;}
	.st1{fill:#F4F78F;stroke:#F4F78F;stroke-width:5;stroke-miterlimit:10;}
	.st2{fill:none;stroke:#999999;stroke-width:2;stroke-miterlimit:10;}
	.st3{fill:#FFC9E3;stroke:#FFC9E3;stroke-width:3.0001;stroke-miterlimit:10.0003;}
	.st4{fill:#FFFFFF;stroke:#BDCCD4;stroke-width:17;stroke-miterlimit:10;}
	.st5{fill:#FFFFFF;stroke:#B3B3B3;stroke-width:6;stroke-miterlimit:10;}
	.st6{fill:#999999;stroke:#999999;stroke-width:6.0002;stroke-miterlimit:10.0003;}
	.st7{fill:#B3B3B3;stroke:#999999;stroke-width:6;stroke-miterlimit:10;}
	.st8{fill:none;stroke:#B3B3B3;stroke-width:3;stroke-miterlimit:10;}
</style>
<path class="st0" d="M473.45,332.47"/>
<path class="st1" d="M419.32,444.78c-11.57-4.8-30.44-14.5-47.75-33.25c-5.62-6.09-27.22-30.63-34.25-69.97
	c-2.43-13.64-6.14-45.97,9.54-81.48c5.33-12.08,17.89-39.51,47.38-57.27c35.2-21.19,82.3-21.25,87.61-8.47
	c3.62,8.71-15.25,16-30.51,45.41c-5.21,10.04-22.88,44.07-11.47,80.94c11.56,37.32,45.78,54.45,51.38,57.15
	c44.69,21.49,84.55-1.79,89.72,9.79c6.21,13.92-44.12,63.76-103.26,67.44C450.85,456.74,428.26,448.49,419.32,444.78z"/>
<polygon class="st1" points="525.64,357.5 518.69,357.59 514.36,363.03 512.66,356.83 506.12,355.05 512.02,351.13 512.31,344.59 
	517.66,348.37 524.37,346.1 521.78,352.36 "/>
<polygon class="st1" points="317.37,503.41 311.35,500.74 305.75,504.19 306.42,497.64 301.42,493.37 307.85,491.99 310.36,485.91 
	313.66,491.61 320.22,492.11 315.83,497.01 "/>
<path class="st2" d="M390.35,307.31c2.12,4.13,0.66,9.17-2.95,11.37c-3.96,2.41-9.54,0.81-11.72-3.82"/>
<path class="st2" d="M419.43,292.18c2.12,4.13,0.66,9.17-2.95,11.37c-3.96,2.41-9.54,0.81-11.72-3.82"/>
<path class="st2" d="M421.5,318.71c3.46,6.73,1.08,14.97-4.81,18.56c-6.46,3.94-15.57,1.32-19.13-6.24"/>
<ellipse transform="matrix(0.895 -0.446 0.446 0.895 -105.4921 205.4178)" class="st3" cx="383.66" cy="326.83" rx="4" ry="2"/>
<ellipse transform="matrix(0.895 -0.446 0.446 0.895 -92.5316 221.5722)" class="st3" cx="424.46" cy="307.37" rx="4" ry="2"/>
<g>
	<path class="st4" d="M175.46,453.76c32.38,31.67,68.51,16.07,158.96,15.29c90.73-0.79,127.99,14.26,144.39-13.24
		c8.48-14.21,10.37-38.09-0.03-55.47c-14.07-23.48-42.83-22.02-44.69-21.89c0.64-10.96,0.49-28.62-5.48-48.62
		c-2.78-9.31-19.63-62.17-68.03-79.28c-37.54-13.27-69.21,3.76-76.49,7.68c-8.27,4.45-20.44,11.19-30.53,26.23
		c-14.55,21.69-14.82,45.79-14.52,54.68c-6.35-3.12-22.51-9.86-40.85-4.17c-29.75,9.24-48.78,46.12-44.64,77.32
		C154.12,416.57,157.12,435.83,175.46,453.76z"/>
	<path class="st5" d="M175.78,453.17c32.38,31.67,68.51,16.07,158.96,15.29c90.73-0.79,127.99,14.26,144.39-13.24
		c8.48-14.21,10.37-38.09-0.03-55.47c-14.07-23.48-42.83-22.02-44.69-21.89c0.64-10.96,0.49-28.62-5.48-48.62
		c-2.78-9.31-19.63-62.17-68.03-79.28c-37.54-13.27-69.21,3.76-76.49,7.68c-8.27,4.45-20.44,11.19-30.53,26.23
		c-14.55,21.69-14.82,45.79-14.52,54.68c-6.35-3.12-22.51-9.86-40.85-4.17c-29.75,9.24-48.78,46.12-44.64,77.32
		C154.43,415.98,157.43,435.24,175.78,453.17z"/>
	
		<ellipse transform="matrix(0.9748 -0.2232 0.2232 0.9748 -76.8024 88.1704)" class="st6" cx="351.66" cy="383.85" rx="1.64" ry="3.98"/>
	<path class="st7" d="M373.41,380.45c0.5,2.14,0.19,4.06-0.69,4.28c-0.88,0.22-1.99-1.33-2.49-3.47c-0.5-2.14-0.19-4.06,0.69-4.28
		C371.79,376.76,372.91,378.31,373.41,380.45z"/>
	<path class="st8" d="M355.72,399.19c1.83,5.03,6.93,8,11.92,7.13c5.41-0.95,9.35-6.18,8.79-11.97"/>
	<ellipse transform="matrix(0.9876 -0.1572 0.1572 0.9876 -57.591 59.8135)" class="st3" cx="349.34" cy="394" rx="2.98" ry="1.5"/>
	
		<ellipse transform="matrix(0.9876 -0.1572 0.1572 0.9876 -56.4385 64.4688)" class="st3" cx="379.35" cy="389.04" rx="2.98" ry="1.5"/>
</g>
<polygon class="st1" points="501.86,494.46 495.85,491.8 490.24,495.24 490.92,488.69 485.91,484.43 492.34,483.05 494.85,476.97 
	498.15,482.66 504.71,483.17 500.32,488.07 "/>
</svg>
