<?xml version="1.0" encoding="utf-8"?>
<!-- Generator: Adobe Illustrator 26.5.1, SVG Export Plug-In . SVG Version: 6.00 Build 0)  -->
<svg version="1.1" id="Layer_1" xmlns="http://www.w3.org/2000/svg" xmlns:xlink="http://www.w3.org/1999/xlink" x="0px" y="0px"
	 viewBox="0 0 720 720" style="enable-background:new 0 0 720 720;" xml:space="preserve">
<style type="text/css">
	.st0{fill:#FFFFFF;stroke:#BDCCD4;stroke-width:17;stroke-miterlimit:10;}
	.st1{fill:#FFFFFF;stroke:#B3B3B3;stroke-width:6;stroke-miterlimit:10;}
	.st2{fill:#999999;stroke:#999999;stroke-width:6;stroke-miterlimit:10;}
	.st3{fill:#B3B3B3;stroke:#999999;stroke-width:6;stroke-miterlimit:10;}
	.st4{fill:none;stroke:#B3B3B3;stroke-width:3;stroke-miterlimit:10;}
	.st5{fill:#FFC9E3;stroke:#FFC9E3;stroke-width:3;stroke-miterlimit:10;}
	.st6{fill:#BDCCD4;stroke:#BDCCD4;stroke-width:3;stroke-miterlimit:10;}
</style>
<g>
	<path class="st0" d="M167.16,447.95c43.41,42.45,91.85,21.55,213.11,20.5c121.65-1.06,171.6,19.11,193.58-17.74
		c11.36-19.04,13.91-51.07-0.04-74.36c-18.86-31.49-57.42-29.52-59.91-29.35c0.87-14.69,0.65-38.37-7.34-65.19
		c-3.72-12.49-26.32-83.35-91.21-106.28c-50.34-17.79-92.79,5.05-102.55,10.3c-11.09,5.97-27.41,15-40.93,35.17
		c-19.51,29.08-19.87,61.38-19.47,73.3c-8.51-4.18-30.18-13.22-54.76-5.59c-39.88,12.39-65.39,61.83-59.85,103.67
		C138.55,398.09,142.57,423.91,167.16,447.95z"/>
	<path class="st1" d="M167.58,447.16c43.41,42.45,91.85,21.55,213.11,20.5c121.65-1.06,171.6,19.11,193.58-17.74
		c11.36-19.04,13.91-51.07-0.04-74.36c-18.86-31.49-57.42-29.52-59.91-29.35c0.87-14.69,0.65-38.37-7.34-65.19
		c-3.72-12.49-26.32-83.35-91.21-106.28c-50.34-17.79-92.79,5.05-102.55,10.3c-11.09,5.97-27.41,15-40.93,35.17
		c-19.51,29.08-19.87,61.38-19.47,73.3c-8.51-4.18-30.18-13.22-54.76-5.59c-39.88,12.39-65.39,61.83-59.85,103.67
		C138.97,397.29,142.99,423.12,167.58,447.16z"/>
	
		<ellipse transform="matrix(0.9748 -0.2232 0.2232 0.9748 -68.8888 98.981)" class="st2" cx="403.37" cy="354.2" rx="2.2" ry="5.33"/>
	<path class="st3" d="M432.54,349.67c0.67,2.87,0.26,5.44-0.92,5.74c-1.18,0.3-2.67-1.78-3.34-4.65c-0.67-2.87-0.26-5.44,0.92-5.74
		C430.37,344.72,431.87,346.8,432.54,349.67z"/>
	<path class="st4" d="M408.83,374.79c2.45,6.75,9.28,10.73,15.98,9.55c7.24-1.28,12.54-8.29,11.79-16.05"/>
	<ellipse transform="matrix(0.9876 -0.1572 0.1572 0.9876 -52.8489 67.5088)" class="st5" cx="400.27" cy="367.79" rx="4" ry="2"/>
	<ellipse transform="matrix(0.9876 -0.1572 0.1572 0.9876 -51.3041 73.7513)" class="st5" cx="440.5" cy="361.15" rx="4" ry="2"/>
</g>
<path class="st6" d="M417.5,496.5c-0.42-0.27-1.8-0.78-7.67,4.09c-7.58,6.28-12.9,10.69-12.19,16.17c0.35,2.7,2.11,5.24,4.43,6.54
	c3.33,1.87,7.67,1.12,10.44-0.79c2.37-1.64,3.41-8.03,5.38-20.75C418.25,499.4,418.57,497.19,417.5,496.5z"/>
<path class="st6" d="M351.63,501.29c-0.42-0.27-1.8-0.78-7.67,4.09c-7.58,6.28-12.9,10.69-12.19,16.17c0.35,2.7,2.11,5.24,4.43,6.54
	c3.33,1.87,7.67,1.12,10.44-0.79c2.37-1.64,3.41-8.03,5.38-20.75C352.38,504.19,352.7,501.97,351.63,501.29z"/>
<path class="st6" d="M282.63,501.29c-0.42-0.27-1.8-0.78-7.67,4.09c-7.58,6.28-12.9,10.69-12.19,16.17c0.35,2.7,2.11,5.24,4.43,6.54
	c3.33,1.87,7.67,1.12,10.44-0.79c2.37-1.64,3.41-8.03,5.38-20.75C283.38,504.19,283.7,501.97,282.63,501.29z"/>
<path class="st6" d="M333.63,551.29c-0.42-0.27-1.8-0.78-7.67,4.09c-7.58,6.28-12.9,10.69-12.19,16.17c0.35,2.7,2.11,5.24,4.43,6.54
	c3.33,1.87,7.67,1.12,10.44-0.79c2.37-1.64,3.41-8.03,5.38-20.75C334.38,554.19,334.7,551.97,333.63,551.29z"/>
<path class="st6" d="M259.63,551.29c-0.42-0.27-1.8-0.78-7.67,4.09c-7.58,6.28-12.9,10.69-12.19,16.17c0.35,2.7,2.11,5.24,4.43,6.54
	c3.33,1.87,7.67,1.12,10.44-0.79c2.37-1.64,3.41-8.03,5.38-20.75C260.38,554.19,260.7,551.97,259.63,551.29z"/>
<path class="st6" d="M398.63,552.29c-0.42-0.27-1.8-0.78-7.67,4.09c-7.58,6.28-12.9,10.69-12.19,16.17c0.35,2.7,2.11,5.24,4.43,6.54
	c3.33,1.87,7.67,1.12,10.44-0.79c2.37-1.64,3.41-8.03,5.38-20.75C399.38,555.19,399.7,552.97,398.63,552.29z"/>
</svg>
