<?xml version="1.0" encoding="utf-8"?>
<!-- Generator: Adobe Illustrator 26.5.1, SVG Export Plug-In . SVG Version: 6.00 Build 0)  -->
<svg version="1.1" id="Layer_1" xmlns="http://www.w3.org/2000/svg" xmlns:xlink="http://www.w3.org/1999/xlink" x="0px" y="0px"
	 viewBox="0 0 720 720" style="enable-background:new 0 0 720 720;" xml:space="preserve">
<style type="text/css">
	.st0{fill:#FFFFFF;stroke:#BDCCD4;stroke-width:17;stroke-miterlimit:10;}
	.st1{fill:#FFFFFF;stroke:#B3B3B3;stroke-width:6;stroke-miterlimit:10;}
	.st2{fill:#999999;stroke:#999999;stroke-width:6;stroke-miterlimit:10;}
	.st3{fill:#B3B3B3;stroke:#999999;stroke-width:6;stroke-miterlimit:10;}
	.st4{fill:none;stroke:#B3B3B3;stroke-width:3;stroke-miterlimit:10;}
	.st5{fill:#FFC9E3;stroke:#FFC9E3;stroke-width:3;stroke-miterlimit:10;}
</style>
<path class="st0" d="M171.39,485.66c43.41,42.45,91.85,21.55,213.11,20.5c121.65-1.06,171.6,19.11,193.58-17.74
	c11.36-19.04,13.91-51.07-0.04-74.36c-18.86-31.49-57.42-29.52-59.91-29.35c0.87-14.69,0.65-38.37-7.34-65.19
	c-3.72-12.49-26.32-83.35-91.21-106.28c-50.34-17.79-92.79,5.05-102.55,10.3c-11.09,5.97-27.41,15-40.93,35.17
	c-19.51,29.08-19.87,61.38-19.47,73.3c-8.51-4.18-30.18-13.22-54.76-5.59c-39.88,12.39-65.39,61.83-59.85,103.67
	C142.78,435.8,146.8,461.62,171.39,485.66z"/>
<path class="st1" d="M171.81,484.87c43.41,42.45,91.85,21.55,213.11,20.5c121.65-1.06,171.6,19.11,193.58-17.74
	c11.36-19.04,13.91-51.07-0.04-74.36c-18.86-31.49-57.42-29.52-59.91-29.35c0.87-14.69,0.65-38.37-7.34-65.19
	c-3.72-12.49-26.32-83.35-91.21-106.28c-50.34-17.79-92.79,5.05-102.55,10.3c-11.09,5.97-27.41,15-40.93,35.17
	c-19.51,29.08-19.87,61.38-19.47,73.3c-8.51-4.18-30.18-13.22-54.76-5.59c-39.88,12.39-65.39,61.83-59.85,103.67
	C143.2,435,147.22,460.83,171.81,484.87z"/>
<ellipse transform="matrix(0.9748 -0.2232 0.2232 0.9748 -77.1998 100.8764)" class="st2" cx="407.6" cy="391.91" rx="2.2" ry="5.33"/>
<path class="st3" d="M436.77,387.38c0.67,2.87,0.26,5.44-0.92,5.74c-1.18,0.3-2.67-1.78-3.34-4.65c-0.67-2.87-0.26-5.44,0.92-5.74
	C434.6,382.43,436.1,384.51,436.77,387.38z"/>
<path class="st4" d="M413.06,412.49c2.45,6.75,9.28,10.73,15.98,9.55c7.24-1.28,12.54-8.29,11.79-16.05"/>
<ellipse transform="matrix(0.9876 -0.1572 0.1572 0.9876 -58.7252 68.6426)" class="st5" cx="404.5" cy="405.5" rx="4" ry="2"/>
<ellipse transform="matrix(0.9876 -0.1572 0.1572 0.9876 -57.1804 74.8851)" class="st5" cx="444.73" cy="398.86" rx="4" ry="2"/>
</svg>
