<?xml version="1.0" encoding="utf-8"?>
<!-- Generator: Adobe Illustrator 26.5.1, SVG Export Plug-In . SVG Version: 6.00 Build 0)  -->
<svg version="1.1" id="Layer_1" xmlns="http://www.w3.org/2000/svg" xmlns:xlink="http://www.w3.org/1999/xlink" x="0px" y="0px"
	 viewBox="0 0 720 720" style="enable-background:new 0 0 720 720;" xml:space="preserve">
<style type="text/css">
	.st0{fill:#F2F2F2;}
	.st1{fill:#F2F2F2;stroke:#F2F2F2;stroke-width:7;stroke-miterlimit:10;}
	.st2{fill:none;stroke:#B3B3B3;stroke-width:2;stroke-miterlimit:10;}
	.st3{fill:#FFC9E3;stroke:#FFC9E3;stroke-width:3.0001;stroke-miterlimit:10.0003;}
	.st4{fill:none;stroke:#B3B3B3;stroke-width:1.9999;stroke-miterlimit:9.9995;}
</style>
<g>
	<polygon class="st0" points="333.45,350.42 303.45,321.62 344.56,315.32 362.67,277.89 381.36,315.04 422.56,320.7 393.01,349.96 
		400.36,390.89 363.4,371.82 326.74,391.46 	"/>
	<path class="st0" d="M362.68,279.02l18.12,36.01l0.24,0.47l0.52,0.07l39.93,5.49l-28.65,28.36l-0.37,0.37l0.09,0.52l7.12,39.68
		l-35.82-18.48l-0.47-0.24l-0.46,0.25l-35.53,19.03l6.51-39.78l0.08-0.52l-0.38-0.36l-29.08-27.91l39.84-6.1l0.52-0.08l0.23-0.47
		L362.68,279.02 M362.66,276.76l-18.44,38.11l-41.85,6.41l30.54,29.32l-6.83,41.78l37.32-19.99l37.62,19.41l-7.48-41.67l30.09-29.78
		l-41.94-5.76L362.66,276.76L362.66,276.76z"/>
</g>
<g>
	<line class="st1" x1="363" y1="334.57" x2="449.5" y2="464.5"/>
	<line class="st1" x1="426.3" y1="428.61" x2="420.15" y2="468.07"/>
	<line class="st1" x1="425.82" y1="429.84" x2="464.57" y2="439.51"/>
	<line class="st1" x1="435.99" y1="409.75" x2="410.53" y2="407.67"/>
	<line class="st1" x1="412.56" y1="406.21" x2="404.41" y2="430.42"/>
</g>
<g>
	<line class="st1" x1="363.58" y1="337.91" x2="279.2" y2="469.23"/>
	<line class="st1" x1="302.79" y1="433.59" x2="264.17" y2="443.77"/>
	<line class="st1" x1="301.47" y1="433.64" x2="308.14" y2="473.02"/>
	<line class="st1" x1="323.95" y1="434.91" x2="315.65" y2="410.75"/>
	<line class="st1" x1="317.8" y1="412.02" x2="292.36" y2="414.26"/>
</g>
<g>
	<line class="st1" x1="361.9" y1="342.99" x2="215.17" y2="289.76"/>
	<line class="st1" x1="255.14" y1="304.88" x2="236.67" y2="269.47"/>
	<line class="st1" x1="254.8" y1="303.6" x2="217.87" y2="318.82"/>
	<line class="st1" x1="258.54" y1="325.8" x2="280.26" y2="312.36"/>
	<line class="st1" x1="279.49" y1="314.75" x2="271.68" y2="290.42"/>
</g>
<g>
	<line class="st1" x1="362.21" y1="343.43" x2="508.43" y2="288.81"/>
	<line class="st1" x1="468.2" y1="303.21" x2="505.22" y2="318.2"/>
	<line class="st1" x1="469.28" y1="303.97" x2="487.53" y2="268.44"/>
	<line class="st1" x1="452.04" y1="289.49" x2="444.22" y2="313.81"/>
	<line class="st1" x1="443.26" y1="311.49" x2="464.97" y2="324.95"/>
</g>
<g>
	<line class="st1" x1="364.11" y1="334.68" x2="358.94" y2="178.68"/>
	<line class="st1" x1="359.77" y1="221.41" x2="385.77" y2="191.09"/>
	<line class="st1" x1="360.83" y1="220.62" x2="332.97" y2="192"/>
	<line class="st1" x1="341.61" y1="232.35" x2="362.17" y2="247.51"/>
	<line class="st1" x1="359.67" y1="247.69" x2="379.34" y2="231.39"/>
</g>
<g>
	<line class="st1" x1="352.12" y1="356.61" x2="443.45" y2="230.03"/>
	<line class="st1" x1="417.98" y1="264.35" x2="457.09" y2="256.26"/>
	<line class="st1" x1="419.3" y1="264.37" x2="414.77" y2="224.69"/>
	<line class="st1" x1="396.92" y1="261.89" x2="403.91" y2="286.46"/>
	<line class="st1" x1="401.82" y1="285.07" x2="427.35" y2="284.21"/>
</g>
<g>
	<line class="st1" x1="348.55" y1="331.37" x2="492.73" y2="391.16"/>
	<line class="st1" x1="453.48" y1="374.26" x2="470.34" y2="410.47"/>
	<line class="st1" x1="453.76" y1="375.55" x2="491.34" y2="362.02"/>
	<line class="st1" x1="451.03" y1="353.2" x2="428.72" y2="365.65"/>
	<line class="st1" x1="429.6" y1="363.3" x2="436.3" y2="387.95"/>
</g>
<g>
	<line class="st1" x1="363.23" y1="317.23" x2="364.71" y2="473.31"/>
	<line class="st1" x1="364.89" y1="430.57" x2="338.18" y2="460.27"/>
	<line class="st1" x1="363.81" y1="431.34" x2="390.98" y2="460.61"/>
	<line class="st1" x1="383.3" y1="420.07" x2="363.11" y2="404.42"/>
	<line class="st1" x1="365.61" y1="404.3" x2="345.56" y2="420.13"/>
</g>
<g>
	<line class="st1" x1="373.96" y1="331.15" x2="232.16" y2="396.4"/>
	<line class="st1" x1="271.22" y1="379.06" x2="233.2" y2="366.85"/>
	<line class="st1" x1="270.08" y1="378.4" x2="254.5" y2="415.17"/>
	<line class="st1" x1="288.35" y1="391.56" x2="294.35" y2="366.73"/>
	<line class="st1" x1="295.49" y1="368.97" x2="272.84" y2="357.15"/>
</g>
<g>
	<line class="st1" x1="374.42" y1="360.57" x2="287.42" y2="230.97"/>
	<line class="st1" x1="310.76" y1="266.77" x2="316.76" y2="227.29"/>
	<line class="st1" x1="311.24" y1="265.54" x2="272.45" y2="256.02"/>
	<line class="st1" x1="301.15" y1="285.67" x2="326.62" y2="287.65"/>
	<line class="st1" x1="324.59" y1="289.12" x2="332.65" y2="264.88"/>
</g>
<path class="st2" d="M352.05,327.51c1.57,2.79,0.49,6.2-2.18,7.69c-2.93,1.63-7.05,0.55-8.66-2.59"/>
<path class="st2" d="M373.55,317.28c1.57,2.79,0.49,6.2-2.18,7.69c-2.93,1.63-7.05,0.55-8.66-2.59"/>
<ellipse transform="matrix(0.9183 -0.3959 0.3959 0.9183 -108.2765 164.8037)" class="st3" cx="345.11" cy="344.71" rx="2.91" ry="1.37"/>
<ellipse transform="matrix(0.9183 -0.3959 0.3959 0.9183 -98.6115 177.3234)" class="st3" cx="380.27" cy="327.55" rx="2.91" ry="1.37"/>
<path class="st4" d="M359.63,341.39c0.25,0.18,3.3,2.29,6.63,1.03c2.94-1.12,4.84-4.39,4.39-7.92"/>
</svg>
