<?xml version="1.0" encoding="utf-8"?>
<!-- Generator: Adobe Illustrator 26.5.1, SVG Export Plug-In . SVG Version: 6.00 Build 0)  -->
<svg version="1.1" id="Layer_1" xmlns="http://www.w3.org/2000/svg" xmlns:xlink="http://www.w3.org/1999/xlink" x="0px" y="0px"
	 viewBox="0 0 720 720" style="enable-background:new 0 0 720 720;" xml:space="preserve">
<style type="text/css">
	.st0{fill:#F4F78F;}
	.st1{fill:#FFC9E3;stroke:#FFC9E3;stroke-width:3;stroke-miterlimit:10;}
	.st2{fill:#F4F78F;stroke:#B3B3B3;stroke-width:3;stroke-miterlimit:10;}
	.st3{fill:#F4F78F;stroke:#F4F78F;stroke-width:3;stroke-miterlimit:10;}
	.st4{fill:#FFFFFF;stroke:#BDCCD4;stroke-width:17;stroke-miterlimit:10;}
	.st5{fill:#FFFFFF;stroke:#B3B3B3;stroke-width:6;stroke-miterlimit:10;}
	.st6{fill:#999999;stroke:#999999;stroke-width:6;stroke-miterlimit:10;}
	.st7{fill:#B3B3B3;stroke:#999999;stroke-width:6;stroke-miterlimit:10;}
	.st8{fill:none;stroke:#B3B3B3;stroke-width:3;stroke-miterlimit:10;}
</style>
<g>
	<g>
		<circle class="st0" cx="310.75" cy="298.94" r="101.65"/>
		<path class="st0" d="M310.75,202.28c53.29,0,96.65,43.36,96.65,96.65s-43.36,96.65-96.65,96.65s-96.65-43.36-96.65-96.65
			S257.46,202.28,310.75,202.28 M310.75,192.28c-58.9,0-106.65,47.75-106.65,106.65s47.75,106.65,106.65,106.65
			S417.4,357.84,417.4,298.94S369.65,192.28,310.75,192.28L310.75,192.28z"/>
	</g>
	
		<ellipse transform="matrix(0.9255 -0.3786 0.3786 0.9255 -90.6058 132.5821)" class="st1" cx="291.82" cy="296.68" rx="2.55" ry="1.27"/>
	
		<ellipse transform="matrix(0.9255 -0.3786 0.3786 0.9255 -82.2821 144.5317)" class="st1" cx="326.37" cy="281.49" rx="2.55" ry="1.27"/>
	<path class="st2" d="M292.6,290.66c-1.26-2.4-0.52-5.2,1.27-6.37c2.12-1.39,5.67-0.47,7,2.55"/>
	<path class="st2" d="M312.05,283.52c-1.26-2.4-0.52-5.2,1.27-6.37c2.12-1.39,5.67-0.47,7,2.55"/>
	<path class="st2" d="M320.86,291.71c2.99,4.99,1.65,11.02-2.14,13.71c-4.49,3.18-12.33,1.6-15.55-4.7"/>
	<polygon class="st3" points="398.79,376.42 393.51,381.37 433.18,423.61 440.82,416.43 	"/>
	<polygon class="st3" points="322.44,417.68 315.21,417.68 315.21,475.63 325.69,475.63 	"/>
	<polygon class="st3" points="237.37,395.43 232.37,390.21 190.51,430.27 197.76,437.84 	"/>
	<polygon class="st3" points="197.43,336.77 194.69,330.07 141.06,352.01 145.03,361.71 	"/>
	<polygon class="st3" points="196.21,266.61 198.79,259.85 144.67,239.17 140.93,248.96 	"/>
	<polygon class="st3" points="231.2,209.91 236.69,205.2 198.91,161.27 190.96,168.1 	"/>
	<polygon class="st3" points="299.45,182.74 306.65,182.01 300.82,124.36 290.39,125.41 	"/>
	<polygon class="st3" points="380.3,198.87 385.86,203.51 422.98,159.02 414.93,152.31 	"/>
	<polygon class="st3" points="417.38,242.01 420.12,248.7 473.75,226.76 469.78,217.06 	"/>
	<polygon class="st3" points="429.22,303.38 428.28,310.54 485.73,318.09 487.09,307.7 	"/>
</g>
<g>
	<path class="st4" d="M203.31,491.91c37.67,36.84,79.71,18.7,184.94,17.79c105.56-0.92,148.91,16.59,167.99-15.4
		c9.86-16.53,12.07-44.32-0.04-64.53c-16.37-27.32-49.83-25.62-51.99-25.47c0.75-12.75,0.57-33.3-6.37-56.57
		c-3.23-10.83-22.84-72.33-79.15-92.23c-43.68-15.44-80.52,4.38-88.99,8.94c-9.62,5.18-23.78,13.02-35.52,30.52
		c-16.93,25.23-17.24,53.27-16.89,63.61c-7.39-3.63-26.19-11.47-47.52-4.85c-34.61,10.75-56.75,53.66-51.93,89.96
		C178.49,448.64,181.98,471.05,203.31,491.91z"/>
	<path class="st5" d="M203.68,491.22c37.67,36.84,79.71,18.7,184.94,17.79c105.56-0.92,148.91,16.59,167.99-15.4
		c9.86-16.53,12.07-44.32-0.04-64.53c-16.37-27.32-49.83-25.62-51.99-25.47c0.75-12.75,0.57-33.3-6.37-56.57
		c-3.23-10.83-22.84-72.33-79.15-92.23c-43.68-15.44-80.52,4.38-88.99,8.94c-9.62,5.18-23.78,13.02-35.52,30.52
		c-16.93,25.23-17.24,53.27-16.89,63.61c-7.39-3.63-26.19-11.47-47.52-4.85c-34.61,10.75-56.75,53.66-51.93,89.96
		C178.85,447.95,182.34,470.36,203.68,491.22z"/>
	
		<ellipse transform="matrix(0.9748 -0.2232 0.2232 0.9748 -81.3437 101.502)" class="st6" cx="408.3" cy="410.55" rx="1.91" ry="4.63"/>
	<path class="st7" d="M433.61,406.62c0.58,2.49,0.22,4.72-0.8,4.98c-1.02,0.26-2.32-1.55-2.9-4.04c-0.58-2.49-0.22-4.72,0.8-4.98
		C431.73,402.32,433.03,404.13,433.61,406.62z"/>
	<path class="st8" d="M413.03,428.42c2.13,5.85,8.06,9.31,13.87,8.29c6.29-1.11,10.88-7.19,10.23-13.93"/>
	
		<ellipse transform="matrix(0.9876 -0.1572 0.1572 0.9876 -61.3601 69.0259)" class="st1" cx="405.61" cy="422.35" rx="3.47" ry="1.74"/>
	
		<ellipse transform="matrix(0.9876 -0.1572 0.1572 0.9876 -60.0195 74.4431)" class="st1" cx="440.52" cy="416.58" rx="3.47" ry="1.74"/>
</g>
</svg>
