<?xml version="1.0" encoding="utf-8"?>
<!-- Generator: Adobe Illustrator 26.5.1, SVG Export Plug-In . SVG Version: 6.00 Build 0)  -->
<svg version="1.1" id="Layer_1" xmlns="http://www.w3.org/2000/svg" xmlns:xlink="http://www.w3.org/1999/xlink" x="0px" y="0px"
	 viewBox="0 0 720 720" style="enable-background:new 0 0 720 720;" xml:space="preserve">
<style type="text/css">
	.st0{fill:#F4F78F;}
	.st1{fill:#FFC9E3;stroke:#FFC9E3;stroke-width:3;stroke-miterlimit:10;}
	.st2{fill:#F4F78F;stroke:#B3B3B3;stroke-width:3;stroke-miterlimit:10;}
	.st3{fill:#F4F78F;stroke:#F4F78F;stroke-width:3;stroke-miterlimit:10;}
	.st4{fill:#FFFFFF;stroke:#BDCCD4;stroke-width:17;stroke-miterlimit:10;}
	.st5{fill:#FFFFFF;stroke:#B3B3B3;stroke-width:6;stroke-miterlimit:10;}
	.st6{fill:#999999;stroke:#999999;stroke-width:6;stroke-miterlimit:10;}
	.st7{fill:#B3B3B3;stroke:#999999;stroke-width:6;stroke-miterlimit:10;}
	.st8{fill:none;stroke:#B3B3B3;stroke-width:2;stroke-miterlimit:10;}
</style>
<g>
	<g>
		<circle class="st0" cx="310.75" cy="298.94" r="101.65"/>
		<path class="st0" d="M310.75,202.28c53.29,0,96.65,43.36,96.65,96.65s-43.36,96.65-96.65,96.65s-96.65-43.36-96.65-96.65
			S257.46,202.28,310.75,202.28 M310.75,192.28c-58.9,0-106.65,47.75-106.65,106.65s47.75,106.65,106.65,106.65
			S417.4,357.84,417.4,298.94S369.65,192.28,310.75,192.28L310.75,192.28z"/>
	</g>
	
		<ellipse transform="matrix(0.9255 -0.3786 0.3786 0.9255 -90.6058 132.5821)" class="st1" cx="291.82" cy="296.68" rx="2.55" ry="1.27"/>
	
		<ellipse transform="matrix(0.9255 -0.3786 0.3786 0.9255 -82.2821 144.5317)" class="st1" cx="326.37" cy="281.49" rx="2.55" ry="1.27"/>
	<path class="st2" d="M292.6,290.66c-1.26-2.4-0.52-5.2,1.27-6.37c2.12-1.39,5.67-0.47,7,2.55"/>
	<path class="st2" d="M312.05,283.52c-1.26-2.4-0.52-5.2,1.27-6.37c2.12-1.39,5.67-0.47,7,2.55"/>
	<path class="st2" d="M320.86,291.71c2.99,4.99,1.65,11.02-2.14,13.71c-4.49,3.18-12.33,1.6-15.55-4.7"/>
	<polygon class="st3" points="398.79,376.42 393.51,381.37 433.18,423.61 440.82,416.43 	"/>
	<polygon class="st3" points="322.44,417.68 315.21,417.68 315.21,475.63 325.69,475.63 	"/>
	<polygon class="st3" points="237.37,395.43 232.37,390.21 190.51,430.27 197.76,437.84 	"/>
	<polygon class="st3" points="197.43,336.77 194.69,330.07 141.06,352.01 145.03,361.71 	"/>
	<polygon class="st3" points="196.21,266.61 198.79,259.85 144.67,239.17 140.93,248.96 	"/>
	<polygon class="st3" points="231.2,209.91 236.69,205.2 198.91,161.27 190.96,168.1 	"/>
	<polygon class="st3" points="299.45,182.74 306.65,182.01 300.82,124.36 290.39,125.41 	"/>
	<polygon class="st3" points="380.3,198.87 385.86,203.51 422.98,159.02 414.93,152.31 	"/>
	<polygon class="st3" points="417.38,242.01 420.12,248.7 473.75,226.76 469.78,217.06 	"/>
	<polygon class="st3" points="429.22,303.38 428.28,310.54 485.73,318.09 487.09,307.7 	"/>
</g>
<path class="st4" d="M375.32,407.49c20.39,19.94,43.14,10.12,100.1,9.63c57.14-0.5,80.6,8.98,90.92-8.33
	c5.34-8.94,6.53-23.99-0.02-34.93c-8.86-14.79-26.97-13.86-28.14-13.78c0.41-6.9,0.31-18.02-3.45-30.62
	c-1.75-5.86-12.36-39.15-42.84-49.92c-23.64-8.35-43.58,2.37-48.17,4.84c-5.21,2.8-12.87,7.05-19.23,16.52
	c-9.16,13.66-9.33,28.83-9.14,34.43c-4-1.96-14.18-6.21-25.72-2.62c-18.73,5.82-30.72,29.04-28.11,48.69
	C361.88,384.07,363.77,396.19,375.32,407.49z"/>
<path class="st5" d="M375.52,407.11c20.39,19.94,43.14,10.12,100.1,9.63c57.14-0.5,80.6,8.98,90.92-8.33
	c5.34-8.94,6.53-23.99-0.02-34.93c-8.86-14.79-26.97-13.86-28.14-13.78c0.41-6.9,0.31-18.02-3.45-30.62
	c-1.75-5.86-12.36-39.15-42.84-49.92c-23.64-8.35-43.58,2.37-48.17,4.84c-5.21,2.8-12.87,7.05-19.23,16.52
	c-9.16,13.66-9.33,28.83-9.14,34.43c-4-1.96-14.18-6.21-25.72-2.62c-18.73,5.82-30.72,29.04-28.11,48.69
	C362.08,383.69,363.97,395.82,375.52,407.11z"/>
<ellipse transform="matrix(0.9748 -0.2232 0.2232 0.9748 -68.8621 117.719)" class="st6" cx="486.27" cy="363.45" rx="1.03" ry="2.5"/>
<path class="st7" d="M499.97,361.32c0.31,1.35,0.12,2.55-0.43,2.69c-0.55,0.14-1.26-0.84-1.57-2.18c-0.31-1.35-0.12-2.55,0.43-2.69
	S499.65,359.98,499.97,361.32z"/>
<ellipse transform="matrix(0.9876 -0.1572 0.1572 0.9876 -52.5905 80.8637)" class="st1" cx="484.81" cy="372.84" rx="1.88" ry="0.94"/>
<ellipse transform="matrix(0.9876 -0.1572 0.1572 0.9876 -51.8649 83.7957)" class="st1" cx="503.71" cy="369.72" rx="1.88" ry="0.94"/>
<ellipse transform="matrix(0.9476 -0.3193 0.3193 0.9476 -94.662 178.213)" class="st8" cx="496.15" cy="377.79" rx="3.05" ry="3.01"/>
</svg>
