<?xml version="1.0" encoding="utf-8"?>
<!-- Generator: Adobe Illustrator 26.5.1, SVG Export Plug-In . SVG Version: 6.00 Build 0)  -->
<svg version="1.1" id="Layer_1" xmlns="http://www.w3.org/2000/svg" xmlns:xlink="http://www.w3.org/1999/xlink" x="0px" y="0px"
	 viewBox="0 0 720 720" style="enable-background:new 0 0 720 720;" xml:space="preserve">
<style type="text/css">
	.st0{fill:#F4F78F;}
	.st1{fill:#FFC9E3;stroke:#FFC9E3;stroke-width:3;stroke-miterlimit:10;}
	.st2{fill:#F4F78F;stroke:#B3B3B3;stroke-width:3;stroke-miterlimit:10;}
	.st3{fill:#F4F78F;stroke:#F4F78F;stroke-width:3;stroke-miterlimit:10;}
</style>
<g>
	<circle class="st0" cx="359.5" cy="360" r="162.5"/>
	<path class="st0" d="M359.5,202.5c42.07,0,81.62,16.38,111.37,46.13C500.62,278.38,517,317.93,517,360s-16.38,81.62-46.13,111.37
		c-29.75,29.75-69.3,46.13-111.37,46.13s-81.62-16.38-111.37-46.13C218.38,441.62,202,402.07,202,360s16.38-81.62,46.13-111.37
		C277.88,218.88,317.43,202.5,359.5,202.5 M359.5,192.5C266.99,192.5,192,267.49,192,360s74.99,167.5,167.5,167.5
		S527,452.51,527,360S452.01,192.5,359.5,192.5L359.5,192.5z"/>
</g>
<ellipse transform="matrix(0.9255 -0.3786 0.3786 0.9255 -110.4139 151.4016)" class="st1" cx="329.77" cy="356.46" rx="4" ry="2"/>
<ellipse transform="matrix(0.9255 -0.3786 0.3786 0.9255 -97.3412 170.1689)" class="st1" cx="384.03" cy="332.6" rx="4" ry="2"/>
<path class="st2" d="M331,347c-1.98-3.77-0.81-8.16,2-10c3.33-2.18,8.9-0.74,11,4"/>
<path class="st2" d="M361.54,335.78c-1.98-3.77-0.81-8.16,2-10c3.33-2.18,8.9-0.74,11,4"/>
<path class="st2" d="M375.38,348.65c4.7,7.83,2.6,17.31-3.35,21.53c-7.05,4.99-19.37,2.51-24.42-7.39"/>
<polygon class="st3" points="497.76,481.69 489.48,489.46 551.78,555.8 563.77,544.54 "/>
<polygon class="st3" points="377.86,546.5 366.5,546.5 366.5,637.5 382.96,637.5 "/>
<polygon class="st3" points="244.26,511.55 236.41,503.34 170.66,566.26 182.04,578.15 "/>
<polygon class="st3" points="181.52,419.41 177.22,408.9 93,443.36 99.23,458.59 "/>
<polygon class="st3" points="179.61,309.23 183.66,298.62 98.66,266.13 92.78,281.5 "/>
<polygon class="st3" points="234.57,220.19 243.18,212.78 183.84,143.79 171.37,154.52 "/>
<polygon class="st3" points="341.75,177.5 353.05,176.36 343.9,85.82 327.53,87.48 "/>
<polygon class="st3" points="468.74,202.85 477.46,210.13 535.76,140.25 523.12,129.71 "/>
<polygon class="st3" points="526.97,270.59 531.27,281.1 615.5,246.64 609.26,231.41 "/>
<polygon class="st3" points="545.56,366.97 544.08,378.23 634.31,390.08 636.45,373.77 "/>
</svg>
