<?xml version="1.0" encoding="utf-8"?>
<!-- Generator: Adobe Illustrator 26.5.1, SVG Export Plug-In . SVG Version: 6.00 Build 0)  -->
<svg version="1.1" id="Layer_1" xmlns="http://www.w3.org/2000/svg" xmlns:xlink="http://www.w3.org/1999/xlink" x="0px" y="0px"
	 viewBox="0 0 720 720" style="enable-background:new 0 0 720 720;" xml:space="preserve">
<style type="text/css">
	.st0{fill:#BDCCD4;stroke:#BDCCD4;stroke-width:3;stroke-miterlimit:10;}
	.st1{fill:#F4F78F;stroke:#F4F78F;stroke-width:3;stroke-miterlimit:10;}
	.st2{fill:#FFFFFF;stroke:#BDCCD4;stroke-width:17;stroke-miterlimit:10;}
	.st3{fill:#FFFFFF;stroke:#B3B3B3;stroke-width:6;stroke-miterlimit:10;}
	.st4{fill:#999999;stroke:#999999;stroke-width:6;stroke-miterlimit:10;}
	.st5{fill:#B3B3B3;stroke:#999999;stroke-width:6;stroke-miterlimit:10;}
	.st6{fill:none;stroke:#B3B3B3;stroke-width:3;stroke-miterlimit:10;}
	.st7{fill:#FFC9E3;stroke:#FFC9E3;stroke-width:3;stroke-miterlimit:10;}
</style>
<path class="st0" d="M351.63,491.66c-0.42-0.27-1.8-0.78-7.67,4.09c-7.58,6.28-12.9,10.69-12.19,16.17c0.35,2.7,2.11,5.24,4.43,6.54
	c3.33,1.87,7.67,1.12,10.44-0.79c2.37-1.64,3.41-8.03,5.38-20.75C352.38,494.56,352.7,492.35,351.63,491.66z"/>
<polygon class="st1" points="365.84,459.93 376.79,461.07 409.65,464.5 383.11,506.57 405.61,503.2 358.06,587.81 367.44,515.4 
	352.66,517.87 "/>
<path class="st2" d="M167.16,438.32c43.41,42.45,91.85,21.55,213.11,20.5c121.65-1.06,171.6,19.11,193.58-17.74
	c11.36-19.04,13.91-51.07-0.04-74.36c-18.86-31.49-57.42-29.52-59.91-29.35c0.87-14.69,0.65-38.37-7.34-65.19
	c-3.72-12.49-26.32-83.35-91.21-106.28c-50.34-17.79-92.79,5.05-102.55,10.3c-11.09,5.97-27.41,15-40.93,35.17
	c-19.51,29.08-19.87,61.38-19.47,73.3c-8.51-4.18-30.18-13.22-54.76-5.59c-39.88,12.39-65.39,61.83-59.85,103.67
	C138.55,388.46,142.57,414.28,167.16,438.32z"/>
<path class="st3" d="M167.58,437.53c43.41,42.45,91.85,21.55,213.11,20.5c121.65-1.06,171.6,19.11,193.58-17.74
	c11.36-19.04,13.91-51.07-0.04-74.36c-18.86-31.49-57.42-29.52-59.91-29.35c0.87-14.69,0.65-38.37-7.34-65.19
	c-3.72-12.49-26.32-83.35-91.21-106.28c-50.34-17.79-92.79,5.05-102.55,10.3c-11.09,5.97-27.41,15-40.93,35.17
	c-19.51,29.08-19.87,61.38-19.47,73.3c-8.51-4.18-30.18-13.22-54.76-5.59c-39.88,12.39-65.39,61.83-59.85,103.67
	C138.97,387.66,142.99,413.49,167.58,437.53z"/>
<ellipse transform="matrix(0.9748 -0.2232 0.2232 0.9748 -66.7392 98.738)" class="st4" cx="403.37" cy="344.57" rx="2.2" ry="5.33"/>
<path class="st5" d="M432.54,340.04c0.67,2.87,0.26,5.44-0.92,5.74c-1.18,0.3-2.67-1.78-3.34-4.65c-0.67-2.87-0.26-5.44,0.92-5.74
	C430.37,335.09,431.87,337.17,432.54,340.04z"/>
<path class="st6" d="M436.33,367.71c-2.91-6.56-10-10.06-16.6-8.42c-7.14,1.78-11.94,9.13-10.65,16.83"/>
<ellipse transform="matrix(0.9876 -0.1572 0.1572 0.9876 -51.3348 67.3891)" class="st7" cx="400.27" cy="358.16" rx="4" ry="2"/>
<ellipse transform="matrix(0.9876 -0.1572 0.1572 0.9876 -49.79 73.6315)" class="st7" cx="440.5" cy="351.52" rx="4" ry="2"/>
<path class="st0" d="M417.5,486.87c-0.42-0.27-1.8-0.78-7.67,4.09c-7.58,6.28-12.9,10.69-12.19,16.17c0.35,2.7,2.11,5.24,4.43,6.54
	c3.33,1.87,7.67,1.12,10.44-0.79c2.37-1.64,3.41-8.03,5.38-20.75C418.25,489.77,418.57,487.56,417.5,486.87z"/>
<path class="st0" d="M282.63,491.66c-0.42-0.27-1.8-0.78-7.67,4.09c-7.58,6.28-12.9,10.69-12.19,16.17c0.35,2.7,2.11,5.24,4.43,6.54
	c3.33,1.87,7.67,1.12,10.44-0.79c2.37-1.64,3.41-8.03,5.38-20.75C283.38,494.56,283.7,492.35,282.63,491.66z"/>
<path class="st0" d="M333.63,541.66c-0.42-0.27-1.8-0.78-7.67,4.09c-7.58,6.28-12.9,10.69-12.19,16.17c0.35,2.7,2.11,5.24,4.43,6.54
	c3.33,1.87,7.67,1.12,10.44-0.79c2.37-1.64,3.41-8.03,5.38-20.75C334.38,544.56,334.7,542.35,333.63,541.66z"/>
<path class="st0" d="M259.63,541.66c-0.42-0.27-1.8-0.78-7.67,4.09c-7.58,6.28-12.9,10.69-12.19,16.17c0.35,2.7,2.11,5.24,4.43,6.54
	c3.33,1.87,7.67,1.12,10.44-0.79c2.37-1.64,3.41-8.03,5.38-20.75C260.38,544.56,260.7,542.35,259.63,541.66z"/>
<path class="st0" d="M398.63,542.66c-0.42-0.27-1.8-0.78-7.67,4.09c-7.58,6.28-12.9,10.69-12.19,16.17c0.35,2.7,2.11,5.24,4.43,6.54
	c3.33,1.87,7.67,1.12,10.44-0.79c2.37-1.64,3.41-8.03,5.38-20.75C399.38,545.56,399.7,543.35,398.63,542.66z"/>
</svg>
