<?xml version="1.0" encoding="utf-8"?>
<!-- Generator: Adobe Illustrator 26.5.1, SVG Export Plug-In . SVG Version: 6.00 Build 0)  -->
<svg version="1.1" id="Layer_1" xmlns="http://www.w3.org/2000/svg" xmlns:xlink="http://www.w3.org/1999/xlink" x="0px" y="0px"
	 viewBox="0 0 720 720" style="enable-background:new 0 0 720 720;" xml:space="preserve">
<style type="text/css">
	.st0{fill:#FFFFFF;stroke:#BDCCD4;stroke-width:17;stroke-miterlimit:10;}
	.st1{fill:#FFFFFF;stroke:#B3B3B3;stroke-width:6;stroke-miterlimit:10;}
	.st2{fill:#999999;stroke:#999999;stroke-width:6.0002;stroke-miterlimit:10.0003;}
	.st3{fill:#B3B3B3;stroke:#999999;stroke-width:6;stroke-miterlimit:10;}
	.st4{fill:#FFC9E3;stroke:#FFC9E3;stroke-width:3.0001;stroke-miterlimit:10.0003;}
	.st5{fill:none;stroke:#B3B3B3;stroke-width:1.9999;stroke-miterlimit:9.9995;}
	.st6{fill:none;stroke:#E6E6E6;stroke-width:4;stroke-miterlimit:9.9995;}
</style>
<path class="st0" d="M198.28,411.66c27.19,26.58,57.52,13.5,133.46,12.84c76.18-0.66,107.46,11.97,121.23-11.11
	c7.11-11.93,8.71-31.98-0.03-46.57c-11.81-19.72-35.96-18.48-37.52-18.38c0.54-9.2,0.41-24.03-4.6-40.82
	c-2.33-7.82-16.48-52.19-57.12-66.55c-31.52-11.14-58.11,3.16-64.22,6.45c-6.95,3.74-17.16,9.4-25.63,22.03
	c-12.22,18.21-12.44,38.44-12.19,45.9c-5.33-2.62-18.9-8.28-34.29-3.5c-24.97,7.76-40.95,38.72-37.48,64.92
	C180.36,380.43,182.88,396.61,198.28,411.66z"/>
<g>
	<g>
		<g>
			<path class="st1" d="M197.9,412.12c27.22,26.62,57.6,13.51,133.65,12.86c76.29-0.67,107.61,11.99,121.39-11.12
				c7.13-11.94,8.72-32.03-0.03-46.64c-11.83-19.75-36.01-18.5-37.57-18.4c0.55-9.21,0.41-24.06-4.61-40.88
				c-2.34-7.82-16.5-52.27-57.2-66.65c-31.56-11.15-58.18,3.16-64.31,6.46c-6.96,3.74-17.18,9.41-25.67,22.06
				c-12.23,18.24-12.46,38.49-12.2,45.97c-5.34-2.62-18.93-8.29-34.34-3.5c-25.01,7.77-41.02,38.77-37.53,65.01
				C179.96,380.85,182.48,397.04,197.9,412.12z"/>
			
				<ellipse transform="matrix(0.9748 -0.2232 0.2232 0.9748 -70.2565 86.1008)" class="st2" cx="345.77" cy="353.86" rx="1.38" ry="3.34"/>
			<path class="st3" d="M364.06,350.98c0.41,1.8,0.16,3.4-0.57,3.59c-0.73,0.19-1.68-1.12-2.1-2.91c-0.41-1.8-0.16-3.4,0.57-3.59
				C362.69,347.88,363.63,349.19,364.06,350.98z"/>
			
				<ellipse transform="matrix(0.9876 -0.1572 0.1572 0.9876 -53.3215 58.603)" class="st4" cx="343.83" cy="366.4" rx="2.51" ry="1.26"/>
			
				<ellipse transform="matrix(0.9876 -0.1572 0.1572 0.9876 -52.3529 62.518)" class="st4" cx="369.06" cy="362.23" rx="2.51" ry="1.26"/>
		</g>
		
			<ellipse transform="matrix(0.9476 -0.3193 0.3193 0.9476 -100.4481 134.5705)" class="st5" cx="360.18" cy="373.62" rx="3.59" ry="3.55"/>
	</g>
	<path class="st6" d="M363.44,381.03c12.41,17.28,47.1,60.35,104.49,71.27c4.9,0.93,72.62,13.07,95.34-19.48
		c0.77-1.11,13.58-19.94,6.1-33.19c-2.83-5.02-9.59-11.03-16.88-9.37c-7.07,1.61-12.74,9.99-10.63,16.94
		c1.59,5.27,7.74,9.97,11.77,8.33c3.57-1.45,5.81-8,3.11-15.33"/>
	<path class="st6" d="M368.42,376.79c7.51,7.9,28.14,27.32,58.03,28.82c2.55,0.13,37.77,1.53,47.02-16.58
		c0.31-0.62,5.49-11.07,0.77-17.27c-1.79-2.35-5.64-4.92-9.22-3.57c-3.47,1.31-5.76,5.96-4.21,9.34c1.18,2.56,4.63,4.52,6.56,3.4
		c1.71-0.99,2.39-4.47,0.5-8"/>
	<path class="st6" d="M366.23,378.7c9.73,12.51,36.79,43.56,79.82,50.04c3.67,0.55,54.42,7.64,70.41-17.23
		c0.54-0.85,9.54-15.23,3.59-24.88c-2.25-3.66-7.45-7.93-12.83-6.49c-5.22,1.4-9.19,7.8-7.43,12.91c1.34,3.88,6.04,7.2,9,5.86
		c2.62-1.18,4.09-6.12,1.87-11.5"/>
</g>
</svg>
